<svg xmlns="http://www.w3.org/2000/svg" viewBox="0 0 239.2 239.2"><defs><style>.cls-1,.cls-2{fill:none;stroke-miterlimit:10;}.cls-1{stroke:#fff;}.cls-2{stroke:#f7941d;stroke-width:2px;}</style></defs><g id="Layer_2" data-name="Layer 2"><g id="Compass"><line class="cls-1" x1="130.02" y1="0.46" x2="129.05" y2="11.59"/><line class="cls-1" x1="140.37" y1="1.82" x2="138.43" y2="12.82"/><line class="cls-1" x1="150.55" y1="4.08" x2="147.66" y2="14.87"/><line class="cls-1" x1="160.5" y1="7.21" x2="156.68" y2="17.72"/><line class="cls-1" x1="170.14" y1="11.21" x2="165.42" y2="21.34"/><line class="cls-1" x1="179.4" y1="16.02" x2="173.81" y2="25.7"/><line class="cls-1" x1="188.2" y1="21.63" x2="181.79" y2="30.79"/><line class="cls-1" x1="196.47" y1="27.98" x2="189.29" y2="36.54"/><line class="cls-1" x1="204.17" y1="35.03" x2="196.26" y2="42.93"/><line class="cls-1" x1="211.22" y1="42.72" x2="202.65" y2="49.91"/><line class="cls-1" x1="217.57" y1="51" x2="208.41" y2="57.41"/><line class="cls-1" x1="223.17" y1="59.8" x2="213.49" y2="65.39"/><line class="cls-1" x1="227.99" y1="69.05" x2="217.86" y2="73.78"/><line class="cls-1" x1="231.98" y1="78.69" x2="221.48" y2="82.52"/><line class="cls-1" x1="235.12" y1="88.64" x2="224.32" y2="91.54"/><line class="cls-1" x1="237.38" y1="98.83" x2="226.37" y2="100.77"/><line class="cls-1" x1="238.74" y1="109.17" x2="227.61" y2="110.15"/><line class="cls-1" x1="239.2" y1="119.6" x2="228.02" y2="119.6"/><line class="cls-1" x1="238.74" y1="130.02" x2="227.61" y2="129.05"/><line class="cls-1" x1="237.38" y1="140.37" x2="226.37" y2="138.43"/><line class="cls-1" x1="235.12" y1="150.55" x2="224.32" y2="147.66"/><line class="cls-1" x1="231.98" y1="160.5" x2="221.48" y2="156.68"/><line class="cls-1" x1="227.99" y1="170.14" x2="217.86" y2="165.42"/><line class="cls-1" x1="223.17" y1="179.4" x2="213.49" y2="173.81"/><line class="cls-1" x1="217.57" y1="188.2" x2="208.41" y2="181.79"/><line class="cls-1" x1="211.22" y1="196.47" x2="202.65" y2="189.29"/><line class="cls-1" x1="204.17" y1="204.17" x2="196.26" y2="196.26"/><line class="cls-1" x1="196.47" y1="211.22" x2="189.29" y2="202.65"/><line class="cls-1" x1="188.2" y1="217.57" x2="181.79" y2="208.41"/><line class="cls-1" x1="179.4" y1="223.17" x2="173.81" y2="213.49"/><line class="cls-1" x1="170.14" y1="227.99" x2="165.42" y2="217.86"/><line class="cls-1" x1="160.5" y1="231.98" x2="156.68" y2="221.48"/><line class="cls-1" x1="150.55" y1="235.12" x2="147.66" y2="224.32"/><line class="cls-1" x1="140.37" y1="237.38" x2="138.43" y2="226.37"/><line class="cls-1" x1="130.02" y1="238.74" x2="129.05" y2="227.61"/><line class="cls-1" x1="119.6" y1="239.2" x2="119.6" y2="228.02"/><line class="cls-1" x1="109.17" y1="238.74" x2="110.15" y2="227.61"/><line class="cls-1" x1="98.83" y1="237.38" x2="100.77" y2="226.37"/><line class="cls-1" x1="88.64" y1="235.12" x2="91.54" y2="224.32"/><line class="cls-1" x1="78.69" y1="231.98" x2="82.52" y2="221.48"/><line class="cls-1" x1="69.05" y1="227.99" x2="73.78" y2="217.86"/><line class="cls-1" x1="59.8" y1="223.17" x2="65.39" y2="213.49"/><line class="cls-1" x1="51" y1="217.57" x2="57.41" y2="208.41"/><line class="cls-1" x1="42.72" y1="211.22" x2="49.91" y2="202.65"/><line class="cls-1" x1="35.03" y1="204.17" x2="42.93" y2="196.26"/><line class="cls-1" x1="27.98" y1="196.47" x2="36.54" y2="189.29"/><line class="cls-1" x1="21.63" y1="188.2" x2="30.79" y2="181.79"/><line class="cls-1" x1="16.02" y1="179.4" x2="25.7" y2="173.81"/><line class="cls-1" x1="11.21" y1="170.14" x2="21.34" y2="165.42"/><line class="cls-1" x1="7.21" y1="160.5" x2="17.72" y2="156.68"/><line class="cls-1" x1="4.08" y1="150.55" x2="14.87" y2="147.66"/><line class="cls-1" x1="1.82" y1="140.37" x2="12.82" y2="138.43"/><line class="cls-1" x1="0.46" y1="130.02" x2="11.59" y2="129.05"/><line class="cls-1" y1="119.6" x2="11.18" y2="119.6"/><line class="cls-1" x1="0.46" y1="109.17" x2="11.59" y2="110.15"/><line class="cls-1" x1="1.82" y1="98.83" x2="12.82" y2="100.77"/><line class="cls-1" x1="4.08" y1="88.64" x2="14.87" y2="91.54"/><line class="cls-1" x1="7.21" y1="78.69" x2="17.72" y2="82.52"/><line class="cls-1" x1="11.21" y1="69.05" x2="21.34" y2="73.78"/><line class="cls-1" x1="16.02" y1="59.8" x2="25.7" y2="65.39"/><line class="cls-1" x1="21.63" y1="51" x2="30.79" y2="57.41"/><line class="cls-1" x1="27.98" y1="42.72" x2="36.54" y2="49.91"/><line class="cls-1" x1="35.03" y1="35.03" x2="42.93" y2="42.93"/><line class="cls-1" x1="42.72" y1="27.98" x2="49.91" y2="36.54"/><line class="cls-1" x1="51" y1="21.63" x2="57.41" y2="30.79"/><line class="cls-1" x1="59.8" y1="16.02" x2="65.39" y2="25.7"/><line class="cls-1" x1="69.05" y1="11.21" x2="73.78" y2="21.34"/><line class="cls-1" x1="78.69" y1="7.21" x2="82.52" y2="17.72"/><line class="cls-1" x1="88.64" y1="4.08" x2="91.54" y2="14.87"/><line class="cls-1" x1="98.83" y1="1.82" x2="100.77" y2="12.82"/><line class="cls-1" x1="109.17" y1="0.46" x2="110.15" y2="11.59"/><line class="cls-1" x1="119.6" x2="119.6" y2="11.18"/><line class="cls-2" x1="179.4" y1="16.02" x2="168.22" y2="35.38"/><line class="cls-2" x1="223.17" y1="59.8" x2="203.81" y2="70.98"/><line class="cls-2" x1="239.2" y1="119.6" x2="216.84" y2="119.6"/><line class="cls-2" x1="223.17" y1="179.4" x2="203.81" y2="168.22"/><line class="cls-2" x1="179.4" y1="223.17" x2="168.22" y2="203.81"/><line class="cls-2" x1="119.6" y1="239.2" x2="119.6" y2="216.84"/><line class="cls-2" x1="59.8" y1="223.17" x2="70.98" y2="203.81"/><line class="cls-2" x1="16.02" y1="179.4" x2="35.38" y2="168.22"/><line class="cls-2" y1="119.6" x2="22.35" y2="119.6"/><line class="cls-2" x1="16.02" y1="59.8" x2="35.38" y2="70.98"/><line class="cls-2" x1="59.8" y1="16.02" x2="70.98" y2="35.38"/><line class="cls-2" x1="119.6" x2="119.6" y2="22.35"/></g></g></svg>