<svg xmlns="http://www.w3.org/2000/svg" viewBox="0 0 150.53 119.6"><defs><style>.cls-1{fill:#fff;}</style></defs><g id="Layer_2" data-name="Layer 2"><g id="Compass"><path class="cls-1" d="M142.3,40.8H9.3A9.33,9.33,0,0,1,0,31.5V22.86a5.58,5.58,0,0,1,5.56-5.57H145a5.58,5.58,0,0,1,5.56,5.57v9.71A8.25,8.25,0,0,1,142.3,40.8Z"/><path class="cls-1" d="M76.2,97.86H74.34L58,98.75c-5.46,0-7.7,2.75-7.7,7.2v8.68c0,4.46,4.46,5,9.92,5h5.17c4.36,0,8.06-2.33,9.38-5.53l1.6-16.21Z"/><path class="cls-1" d="M77,97.9l-.56,17.33a10.41,10.41,0,0,0,8.8,4.37h5.16c5.46,0,9.92-.51,9.92-5V106c0-4.45-2.23-7.2-7.69-7.2Z"/><path class="cls-1" d="M76.33,97.86l-1.6,16.21a6.77,6.77,0,0,0,.47-1.65.07.07,0,0,1,.13,0,7,7,0,0,0,1.06,2.81L77,97.9Z"/><circle class="cls-1" cx="75.27" cy="0.89" r="0.89"/><path class="cls-1" d="M86,.89c0,.28-2.5.53-5.59.53a31.23,31.23,0,0,1-5.11-.32,31.38,31.38,0,0,1-5.12.32c-3.09,0-5.58-.25-5.58-.53S67.06.36,70.15.36a31.69,31.69,0,0,1,5.12.31A31.54,31.54,0,0,1,80.38.36C83.47.36,86,.59,86,.89Z"/><polygon class="cls-1" points="85.1 29.92 65.44 29.92 69.71 104.16 75.71 104.16 77.26 88.41 76.75 104.16 80.82 104.16 85.1 29.92"/><polygon class="cls-1" points="75.71 104.16 76.75 104.16 77.26 88.41 75.71 104.16"/><path class="cls-1" d="M84.5,18.13H66l.54-9.55a7.7,7.7,0,0,1,4.71-6.74,10.68,10.68,0,0,1,7.37-.22,7.82,7.82,0,0,1,5.31,7Z"/></g></g></svg>