<svg xmlns="http://www.w3.org/2000/svg" viewBox="0 0 338.8 178.79"><defs><style>.cls-1{fill:#231f20;}</style></defs><g id="Layer_2" data-name="Layer 2"><g id="Layer_1-2" data-name="Layer 1"><polygon class="cls-1" points="38.89 164.88 13.72 175.78 38.89 175.78 38.89 164.88"/><polygon class="cls-1" points="38.89 107.9 66.69 107.9 66.69 68.88 38.89 68.88 38.89 43.72 68.74 43.72 68.74 3.13 0 3.13 0 159.62 38.89 145.74 38.89 107.9"/><path class="cls-1" d="M121.62,108.13a95,95,0,0,1-1.68-18.79q0-21.69,6.72-34t18.65-12.19q9.15,0,17.82,10.4l1.68-46.22C157.92,3.13,150.19,0,143.91,0q-29,0-46.35,24.6T80.21,90.12q0,22.16,4.77,39.18l38.61-13.78A59.47,59.47,0,0,1,121.62,108.13Z"/><path class="cls-1" d="M144.57,133.84a18.55,18.55,0,0,1-10.45-3,21.92,21.92,0,0,1-5.21-4.91l-39,16.89a74.38,74.38,0,0,0,8.8,14.74q16.5,21.24,40.66,21.24c6.84,0,18.42,0,25.47-7.16v-49Q154.64,133.85,144.57,133.84Z"/><path class="cls-1" d="M234,80.43q1.17,11.29,1.32,13.27a22.47,22.47,0,0,0,.37,3l2.52,20.13H221.79l3.92-27.06.79-6.11-38.15,16.51L173.2,175.78h40.2l3.17-21.92h26.21l2.89,21.92h40.2L266.54,66.35Z"/><path class="cls-1" d="M228.41,68.88c.07-.37.19-1.45.38-3.24s.49-5,.93-9.62q.38-3.47.7-6.37c.22-1.94.39-3.69.51-5.26l1.22,16.33c.31,3.35.55,6.13.74,8.33s.34,3.93.47,5.2c.07.7.14,1.37.21,2l32.66-11.66L255.37,3.13H207.8L190,91.82l37.13-13.25Z"/></g><g id="Layer_3" data-name="Layer 3"><path class="cls-1" d="M327,75.81l-29.22-62a4.79,4.79,0,0,1,2.29-6.38l4-1.9a2.89,2.89,0,0,1,3.82,1.37l30.63,65a2.87,2.87,0,0,1-1.37,3.81l-4.52,2.14A4.27,4.27,0,0,1,327,75.81Z"/><path class="cls-1" d="M285.89,57.55l-.41-.86-4-7.44c-1.2-2.54-3-3-5-2l-4.05,1.91c-2.08,1-1.33,3.17-.13,5.72l1.13,2.4A5.13,5.13,0,0,0,278,60.43l7.9-2.82Z"/><path class="cls-1" d="M286,57.91l-8.2,3.55a5.36,5.36,0,0,0-.1,5.06l1.14,2.41c1.19,2.54,2.41,4.51,4.49,3.53l4.05-1.91c2.07-1,2.86-2.63,1.66-5.17Z"/><path class="cls-1" d="M285.91,57.61,278,60.43a3.17,3.17,0,0,0,.87-.14,0,0,0,0,1,0,.06,3.47,3.47,0,0,0-1.08,1.11l8.2-3.55Z"/><circle class="cls-1" cx="330.86" cy="35.81" r="0.46"/><path class="cls-1" d="M333.21,40.8a7.9,7.9,0,0,1-1.47-2.49,16.89,16.89,0,0,1-1-2.45,15.64,15.64,0,0,1-1.27-2.32,7.64,7.64,0,0,1-1-2.71A7.84,7.84,0,0,1,330,33.31a17.36,17.36,0,0,1,1,2.45,16.2,16.2,0,0,1,1.27,2.32A7.65,7.65,0,0,1,333.21,40.8Z"/><polygon class="cls-1" points="319.49 46.77 315.17 37.61 281.52 55.91 282.84 58.71 290.52 55.97 283.07 59.19 283.97 61.09 319.49 46.77"/><polygon class="cls-1" points="282.84 58.71 283.07 59.19 290.52 55.97 282.84 58.71"/><path class="cls-1" d="M324.86,43.9l-4.06-8.6,4.56-1.85a4,4,0,0,1,4.18.71,5.5,5.5,0,0,1,1.72,3.39,4,4,0,0,1-2.09,4Z"/></g></g></svg>